<svg xmlns="http://www.w3.org/2000/svg" xmlns:xlink="http://www.w3.org/1999/xlink" width="500" zoomAndPan="magnify" viewBox="0 0 375 374.999991" height="500" preserveAspectRatio="xMidYMid meet" version="1.0"><defs><clipPath id="d999e1ec31"><path d="M 266.171875 37.929688 L 337.5 37.929688 L 337.5 109.257812 L 266.171875 109.257812 Z M 266.171875 37.929688 " clip-rule="nonzero"/></clipPath><clipPath id="f87802fd1e"><path d="M 301.835938 37.929688 C 282.140625 37.929688 266.171875 53.894531 266.171875 73.59375 C 266.171875 93.289062 282.140625 109.257812 301.835938 109.257812 C 321.53125 109.257812 337.5 93.289062 337.5 73.59375 C 337.5 53.894531 321.53125 37.929688 301.835938 37.929688 Z M 301.835938 37.929688 " clip-rule="nonzero"/></clipPath><clipPath id="5679b22b1f"><path d="M 130.527344 127.777344 L 248.550781 127.777344 L 248.550781 245.804688 L 130.527344 245.804688 Z M 130.527344 127.777344 " clip-rule="nonzero"/></clipPath><clipPath id="3977540749"><path d="M 189.539062 127.777344 C 156.945312 127.777344 130.527344 154.199219 130.527344 186.792969 C 130.527344 219.382812 156.945312 245.804688 189.539062 245.804688 C 222.128906 245.804688 248.550781 219.382812 248.550781 186.792969 C 248.550781 154.199219 222.128906 127.777344 189.539062 127.777344 Z M 189.539062 127.777344 " clip-rule="nonzero"/></clipPath><clipPath id="e085cc25a7"><path d="M 37.5 265.742188 L 108.828125 265.742188 L 108.828125 337.070312 L 37.5 337.070312 Z M 37.5 265.742188 " clip-rule="nonzero"/></clipPath><clipPath id="4ff39926b2"><path d="M 73.164062 265.742188 C 53.46875 265.742188 37.5 281.710938 37.5 301.40625 C 37.5 321.105469 53.46875 337.070312 73.164062 337.070312 C 92.859375 337.070312 108.828125 321.105469 108.828125 301.40625 C 108.828125 281.710938 92.859375 265.742188 73.164062 265.742188 Z M 73.164062 265.742188 " clip-rule="nonzero"/></clipPath></defs><g clip-path="url(#d999e1ec31)"><g clip-path="url(#f87802fd1e)"><path fill="#708b75" d="M 266.171875 37.929688 L 337.5 37.929688 L 337.5 109.257812 L 266.171875 109.257812 Z M 266.171875 37.929688 " fill-opacity="1" fill-rule="nonzero"/></g></g><g clip-path="url(#5679b22b1f)"><g clip-path="url(#3977540749)"><path fill="#30bced" d="M 130.527344 127.777344 L 248.550781 127.777344 L 248.550781 245.804688 L 130.527344 245.804688 Z M 130.527344 127.777344 " fill-opacity="1" fill-rule="nonzero"/></g></g><g clip-path="url(#e085cc25a7)"><g clip-path="url(#4ff39926b2)"><path fill="#708b75" d="M 37.5 265.742188 L 108.828125 265.742188 L 108.828125 337.070312 L 37.5 337.070312 Z M 37.5 265.742188 " fill-opacity="1" fill-rule="nonzero"/></g></g><path stroke-linecap="butt" transform="matrix(1.241, 0, 0, 1.241, 63.5114, 66.146415)" fill="none" stroke-linejoin="miter" d="M 54.001573 97.217218 L 30.000638 97.217218 C 16.745827 97.217218 5.999704 86.471095 5.999704 73.216283 L 5.999704 29.998863 C 5.999704 16.744052 16.745827 6.001077 30.000638 6.001077 L 157.304742 6.001077 " stroke="#484349" stroke-width="12" stroke-opacity="1" stroke-miterlimit="4"/><path stroke-linecap="round" transform="matrix(1.241, 0, 0, 1.241, 63.5114, 66.146415)" fill="none" stroke-linejoin="round" d="M 133.303807 -12.000411 L 157.304742 6.001077 L 133.303807 23.999417 " stroke="#484349" stroke-width="12" stroke-opacity="1" stroke-miterlimit="4"/><path stroke-linecap="butt" transform="matrix(1.241, 0, 0, 1.241, 108.828667, 179.345643)" fill="none" stroke-linejoin="miter" d="M 112.58834 6.001069 L 136.589274 6.001069 C 149.844085 6.001069 160.587061 16.744045 160.587061 29.998856 L 160.587061 74.358878 C 160.587061 87.613689 149.844085 98.356665 136.589274 98.356665 L 5.99901 98.356665 " stroke="#484349" stroke-width="12" stroke-opacity="1" stroke-miterlimit="4"/><path stroke-linecap="round" transform="matrix(1.241, 0, 0, 1.241, 108.828667, 179.345643)" fill="none" stroke-linejoin="round" d="M 29.999944 116.358152 L 5.99901 98.356665 L 29.999944 80.358325 " stroke="#484349" stroke-width="12" stroke-opacity="1" stroke-miterlimit="4"/></svg>